<?xml version="1.0" standalone="no"?>
<!DOCTYPE svg PUBLIC "-//W3C//DTD SVG 20010904//EN"
 "http://www.w3.org/TR/2001/REC-SVG-20010904/DTD/svg10.dtd">
<svg version="1.0" xmlns="http://www.w3.org/2000/svg"
 width="600.000000pt" height="600.000000pt" viewBox="0 0 600.000000 600.000000"
 preserveAspectRatio="xMidYMid meet">
<metadata>
Created by potrace 1.14, written by Peter Selinger 2001-2017
</metadata>
<g transform="translate(0.000000,600.000000) scale(0.100000,-0.100000)"
fill="#000000" stroke="none">
<path d="M15 4848 c16 -55 140 -293 205 -393 185 -283 507 -641 840 -935 47
-41 87 -77 90 -80 54 -54 334 -282 638 -518 307 -240 284 -216 283 -291 0 -35
-5 -86 -10 -114 -6 -29 -12 -63 -15 -77 -2 -14 -13 -74 -25 -135 -40 -213 -44
-292 -18 -342 22 -42 178 -196 312 -308 26 -22 53 -45 59 -50 6 -6 34 -28 61
-50 28 -22 52 -43 55 -46 6 -7 308 -244 423 -332 l88 -68 147 115 c322 252
487 384 538 431 6 5 39 35 74 65 96 83 219 210 237 244 16 32 20 111 9 181
-10 62 -35 207 -41 235 -25 125 -39 238 -36 292 2 27 32 54 281 248 212 166
477 376 490 390 3 3 39 34 80 69 417 354 778 741 987 1057 105 159 235 415
220 431 -3 2 -24 -22 -48 -54 -49 -65 -280 -301 -380 -386 -321 -277 -741
-548 -1324 -852 -82 -43 -159 -83 -170 -88 -11 -6 -27 -14 -35 -18 -8 -5 -91
-47 -185 -95 -233 -118 -377 -201 -421 -240 -36 -33 -36 -35 -30 -86 4 -28 16
-95 26 -147 11 -53 22 -112 25 -131 3 -19 10 -53 15 -75 18 -81 25 -153 25
-270 0 -132 -7 -150 -80 -218 -75 -70 -355 -227 -405 -227 -27 0 -229 101
-310 155 -83 56 -132 101 -156 145 -27 51 -26 253 2 394 2 12 6 33 9 48 5 25
42 212 50 248 1 8 6 41 9 73 7 57 7 57 -31 92 -46 42 -177 116 -478 270 -782
400 -1121 602 -1484 883 -198 153 -454 398 -552 527 -45 60 -54 66 -44 33z"/>
</g>
</svg>
